<svg xmlns="http://www.w3.org/2000/svg" xmlns:xlink="http://www.w3.org/1999/xlink" width="500" zoomAndPan="magnify" viewBox="0 0 375 374.999991" height="500" preserveAspectRatio="xMidYMid meet" version="1.0"><defs><clipPath id="b6aee7ed82"><path d="M 112.5 186 L 262.5 186 L 262.5 189 L 112.5 189 Z M 112.5 186 " clip-rule="nonzero"/></clipPath><clipPath id="d854d23050"><path d="M 135 313 L 171 313 L 171 370.566406 L 135 370.566406 Z M 135 313 " clip-rule="nonzero"/></clipPath><clipPath id="7f67949fda"><path d="M 327 178 L 343.382812 178 L 343.382812 194.554688 L 327 194.554688 Z M 327 178 " clip-rule="nonzero"/></clipPath><clipPath id="4d17bb8e13"><path d="M 31.417969 145 L 53 145 L 53 161 L 31.417969 161 Z M 31.417969 145 " clip-rule="nonzero"/></clipPath></defs><g clip-path="url(#b6aee7ed82)"><path fill="#b4f0fa" d="M 112.953125 186 L 112.953125 189 L 262.027344 189 L 262.027344 186 L 112.953125 186 " fill-opacity="1" fill-rule="nonzero"/></g><path fill="#b4f0fa" d="M 295.882812 231.390625 C 289.152344 292.960938 232.796875 337.171875 170.003906 330.136719 C 107.214844 323.101562 61.765625 267.484375 68.496094 205.910156 C 74.515625 150.824219 177.890625 47.910156 199.59375 26.847656 C 201.644531 24.855469 205.050781 25.238281 206.625 27.636719 C 223.253906 52.992188 301.902344 176.300781 295.882812 231.390625 " fill-opacity="1" fill-rule="nonzero"/><path fill="#f0fcff" d="M 133.101562 137.453125 C 131.964844 137.453125 130.816406 137.136719 129.800781 136.464844 C 126.996094 134.640625 126.207031 130.886719 128.03125 128.085938 C 137.179688 114.0625 159.261719 90.050781 160.199219 89.039062 C 162.464844 86.578125 166.296875 86.421875 168.757812 88.6875 C 171.214844 90.957031 171.371094 94.789062 169.105469 97.25 C 168.882812 97.492188 146.769531 121.53125 138.179688 134.703125 C 137.019531 136.484375 135.078125 137.453125 133.101562 137.453125 " fill-opacity="1" fill-rule="nonzero"/><path fill="#f0fcff" d="M 178.519531 83.375 C 177.078125 83.375 175.632812 82.859375 174.476562 81.824219 C 171.988281 79.589844 171.78125 75.757812 174.011719 73.269531 L 175.410156 71.714844 C 177.644531 69.226562 181.472656 69.019531 183.960938 71.253906 C 186.449219 73.492188 186.65625 77.320312 184.421875 79.808594 L 183.03125 81.363281 C 181.832031 82.695312 180.179688 83.375 178.519531 83.375 " fill-opacity="1" fill-rule="nonzero"/><path fill="#2e3030" d="M 251.085938 347.804688 C 250.34375 347.777344 249.675781 347.605469 249.066406 347.289062 C 246.144531 345.769531 245.675781 341.484375 245.039062 335.542969 C 244.707031 332.445312 244.324219 328.9375 243.550781 325.125 C 242.652344 320.695312 241.035156 317.828125 238.601562 316.367188 C 233.617188 313.371094 224.949219 315.625 211.277344 319.679688 C 210.480469 319.917969 209.644531 319.460938 209.410156 318.667969 C 209.175781 317.871094 209.628906 317.039062 210.421875 316.800781 C 224.886719 312.507812 234.105469 310.160156 240.148438 313.792969 C 243.34375 315.710938 245.417969 319.222656 246.492188 324.527344 C 247.296875 328.476562 247.683594 332.0625 248.023438 335.222656 C 248.523438 339.851562 248.953125 343.847656 250.453125 344.621094 C 251.125 344.976562 252.675781 344.976562 256.242188 343 C 256.96875 342.597656 257.882812 342.859375 258.28125 343.585938 C 258.683594 344.3125 258.421875 345.226562 257.695312 345.625 C 254.933594 347.15625 252.804688 347.867188 251.085938 347.804688 " fill-opacity="1" fill-rule="nonzero"/><g clip-path="url(#d854d23050)"><path fill="#2e3030" d="M 167.289062 370.4375 C 167.136719 370.429688 166.988281 370.398438 166.835938 370.347656 C 166.058594 370.0625 165.652344 369.203125 165.929688 368.421875 C 167.257812 364.738281 167.527344 362.316406 166.753906 361.015625 C 165.746094 359.328125 162.398438 358.824219 158.164062 358.183594 C 155.261719 357.746094 151.980469 357.253906 148.316406 356.265625 C 132.472656 352.003906 134.820312 337.210938 138.371094 314.816406 C 138.503906 313.996094 139.269531 313.441406 140.089844 313.566406 C 140.910156 313.695312 141.46875 314.464844 141.335938 315.285156 C 137.640625 338.601562 136.425781 349.957031 149.097656 353.367188 C 152.59375 354.308594 155.789062 354.789062 158.609375 355.214844 C 163.828125 356 167.597656 356.570312 169.332031 359.476562 C 170.628906 361.65625 170.453125 364.730469 168.757812 369.441406 C 168.53125 370.070312 167.925781 370.457031 167.289062 370.4375 " fill-opacity="1" fill-rule="nonzero"/></g><path fill="#2e3030" d="M 287.300781 217.332031 C 286.644531 217.332031 286.039062 216.898438 285.855469 216.230469 C 285.632812 215.433594 286.101562 214.605469 286.902344 214.382812 C 300.050781 210.738281 305.832031 206.371094 314.582031 199.761719 C 318.757812 196.601562 323.496094 193.023438 329.957031 188.832031 C 330.652344 188.378906 331.582031 188.570312 332.03125 189.269531 C 332.484375 189.964844 332.285156 190.898438 331.589844 191.347656 C 325.21875 195.488281 320.53125 199.03125 316.390625 202.15625 C 307.691406 208.730469 301.40625 213.480469 287.703125 217.277344 C 287.570312 217.3125 287.4375 217.332031 287.300781 217.332031 " fill-opacity="1" fill-rule="nonzero"/><path fill="#2e3030" d="M 329.90625 192.074219 C 329.472656 192.074219 329.042969 191.878906 328.757812 191.503906 C 328.269531 190.871094 328.390625 189.960938 329.023438 189.472656 L 338.933594 181.871094 C 339.570312 181.382812 340.476562 181.5 340.964844 182.136719 C 341.449219 182.773438 341.328125 183.679688 340.695312 184.167969 L 330.789062 191.773438 C 330.523438 191.972656 330.21875 192.074219 329.90625 192.074219 " fill-opacity="1" fill-rule="nonzero"/><g clip-path="url(#7f67949fda)"><path fill="#2e3030" d="M 341.933594 194.144531 C 341.871094 194.144531 341.804688 194.140625 341.734375 194.132812 L 328.0625 192.277344 L 327.277344 179.644531 C 327.226562 178.84375 327.835938 178.15625 328.632812 178.105469 C 329.421875 178.046875 330.121094 178.660156 330.171875 179.460938 L 330.808594 189.726562 L 342.128906 191.261719 C 342.921875 191.367188 343.476562 192.097656 343.367188 192.890625 C 343.269531 193.617188 342.648438 194.144531 341.933594 194.144531 " fill-opacity="1" fill-rule="nonzero"/></g><path fill="#2e3030" d="M 326.980469 189.664062 C 327.300781 187.675781 329.175781 186.320312 331.167969 186.644531 C 333.15625 186.96875 334.507812 188.84375 334.183594 190.828125 C 333.863281 192.824219 331.988281 194.171875 330 193.847656 C 328.011719 193.527344 326.65625 191.652344 326.980469 189.664062 " fill-opacity="1" fill-rule="nonzero"/><path fill="#2e3030" d="M 74.324219 194.320312 C 73.976562 194.320312 73.628906 194.199219 73.34375 193.953125 C 62.308594 184.359375 59.445312 180.15625 54.695312 173.191406 C 52.25 169.605469 49.210938 165.144531 44.222656 158.742188 C 43.714844 158.089844 43.832031 157.144531 44.488281 156.636719 C 45.140625 156.125 46.085938 156.242188 46.59375 156.898438 C 51.636719 163.375 54.710938 167.878906 57.175781 171.496094 C 61.945312 178.492188 64.574219 182.34375 75.3125 191.6875 C 75.9375 192.230469 76.003906 193.179688 75.460938 193.804688 C 75.164062 194.144531 74.746094 194.320312 74.324219 194.320312 " fill-opacity="1" fill-rule="nonzero"/><path fill="#2e3030" d="M 46.058594 160.0625 C 45.554688 160.0625 45.0625 159.796875 44.796875 159.328125 L 38.4375 148.15625 C 38.039062 147.464844 38.28125 146.578125 38.976562 146.183594 C 39.671875 145.789062 40.558594 146.027344 40.957031 146.722656 L 47.316406 157.894531 C 47.710938 158.589844 47.464844 159.476562 46.773438 159.871094 C 46.546875 160 46.300781 160.0625 46.058594 160.0625 " fill-opacity="1" fill-rule="nonzero"/><g clip-path="url(#4d17bb8e13)"><path fill="#2e3030" d="M 47.324219 160.671875 L 32.785156 159.195312 C 31.992188 159.113281 31.414062 158.402344 31.492188 157.605469 C 31.574219 156.8125 32.28125 156.230469 33.082031 156.3125 L 45.429688 157.570312 L 49.691406 146.734375 C 49.984375 145.992188 50.828125 145.625 51.570312 145.917969 C 52.316406 146.210938 52.683594 147.050781 52.386719 147.796875 L 47.324219 160.671875 " fill-opacity="1" fill-rule="nonzero"/></g><path fill="#2e3030" d="M 49.628906 158.699219 C 49.976562 156.714844 48.648438 154.824219 46.660156 154.476562 C 44.679688 154.132812 42.785156 155.46875 42.445312 157.453125 C 42.097656 159.433594 43.425781 161.328125 45.410156 161.667969 C 47.402344 162.015625 49.289062 160.6875 49.628906 158.699219 " fill-opacity="1" fill-rule="nonzero"/><path fill="#fbada8" d="M 219.125 231.046875 C 219.34375 235.125 225.613281 238.105469 233.132812 237.703125 C 240.652344 237.304688 246.5625 233.675781 246.347656 229.597656 C 246.132812 225.519531 239.863281 222.53125 232.34375 222.9375 C 224.828125 223.332031 218.914062 226.960938 219.125 231.046875 " fill-opacity="1" fill-rule="nonzero"/><path fill="#fbada8" d="M 99.691406 215.972656 C 99.089844 220.011719 104.371094 224.140625 111.484375 225.199219 C 118.597656 226.25 124.851562 223.828125 125.449219 219.792969 C 126.042969 215.746094 120.765625 211.617188 113.65625 210.5625 C 106.539062 209.507812 100.28125 211.929688 99.691406 215.972656 " fill-opacity="1" fill-rule="nonzero"/><path fill="#1c1b1b" d="M 146.027344 238.929688 C 148.933594 245.5625 151.910156 250.585938 154.828125 254.332031 C 156.542969 256.511719 158.21875 258.261719 159.859375 259.648438 C 164.308594 263.472656 168.449219 264.683594 171.816406 264.796875 C 177.769531 264.988281 183.195312 261.855469 187.511719 257.042969 C 191.695312 252.480469 194.867188 246.386719 196.550781 240.296875 C 196.683594 239.875 196.628906 239.421875 196.390625 239.050781 C 196.179688 238.703125 195.816406 238.464844 195.417969 238.449219 L 147.1875 236.871094 C 146.738281 236.859375 146.335938 237.128906 146.101562 237.542969 C 145.859375 237.960938 145.820312 238.496094 146.027344 238.929688 " fill-opacity="1" fill-rule="nonzero"/><path fill="#ff736b" d="M 161.785156 261.160156 C 165.5 263.800781 168.941406 264.703125 171.816406 264.796875 C 177.769531 264.988281 183.195312 261.855469 187.511719 257.042969 C 183.765625 252.902344 177.570312 251.789062 170.683594 253.519531 C 165.296875 254.871094 161.785156 261.160156 161.785156 261.160156 " fill-opacity="1" fill-rule="nonzero"/><path fill="#2e3030" d="M 157.074219 214.03125 C 156.488281 214.023438 155.980469 213.585938 155.902344 212.988281 C 154.570312 202.953125 145.503906 202.714844 142.769531 202.882812 C 136.71875 203.25 130.207031 206.847656 130.152344 211.621094 C 130.144531 212.28125 129.601562 212.8125 128.941406 212.804688 C 128.28125 212.796875 127.753906 212.253906 127.761719 211.59375 C 127.832031 205.289062 135.53125 200.921875 142.621094 200.492188 C 149.339844 200.078125 157 203.070312 158.273438 212.675781 C 158.363281 213.328125 157.902344 213.929688 157.25 214.015625 C 157.1875 214.023438 157.132812 214.03125 157.074219 214.03125 " fill-opacity="1" fill-rule="nonzero"/><path fill="#2e3030" d="M 219.480469 220.492188 C 218.898438 220.488281 218.390625 220.050781 218.308594 219.453125 C 217.601562 214.058594 213.207031 209.976562 207.121094 209.054688 C 201.945312 208.273438 194.691406 209.957031 191.324219 217.285156 C 191.046875 217.886719 190.339844 218.148438 189.734375 217.871094 C 189.136719 217.597656 188.875 216.886719 189.148438 216.285156 C 192.378906 209.257812 199.582031 205.492188 207.480469 206.6875 C 214.644531 207.773438 219.828125 212.660156 220.683594 219.140625 C 220.769531 219.796875 220.308594 220.394531 219.652344 220.484375 C 219.597656 220.492188 219.539062 220.496094 219.480469 220.492188 " fill-opacity="1" fill-rule="nonzero"/></svg>