<svg xmlns="http://www.w3.org/2000/svg" xmlns:xlink="http://www.w3.org/1999/xlink" width="500" zoomAndPan="magnify" viewBox="0 0 375 374.999991" height="500" preserveAspectRatio="xMidYMid meet" version="1.0"><defs><clipPath id="17651ed490"><path d="M 112.5 186 L 262.5 186 L 262.5 189 L 112.5 189 Z M 112.5 186 " clip-rule="nonzero"/></clipPath><clipPath id="5c674637fc"><path d="M 164 304 L 185 304 L 185 370.945312 L 164 370.945312 Z M 164 304 " clip-rule="nonzero"/></clipPath><clipPath id="754991215e"><path d="M 75.460938 7.285156 L 299.710938 7.285156 L 299.710938 308.925781 L 75.460938 308.925781 Z M 75.460938 7.285156 " clip-rule="nonzero"/></clipPath></defs><g clip-path="url(#17651ed490)"><path fill="#b4f0fa" d="M 112.953125 186 L 112.953125 189 L 262.027344 189 L 262.027344 186 L 112.953125 186 " fill-opacity="1" fill-rule="nonzero"/></g><g clip-path="url(#5c674637fc)"><path fill="#2a2c2c" d="M 174.800781 370.683594 C 177.488281 370.84375 179.652344 370.210938 181.324219 368.78125 C 188.363281 362.765625 183.824219 344.734375 179.019531 325.644531 C 177.226562 318.519531 175.527344 311.785156 174.519531 305.902344 C 174.363281 305 173.523438 304.398438 172.636719 304.558594 C 171.75 304.722656 171.160156 305.582031 171.3125 306.484375 C 172.351562 312.492188 174.0625 319.289062 175.871094 326.480469 C 180.011719 342.925781 184.703125 361.570312 179.242188 366.238281 C 176.976562 368.175781 172.644531 367.675781 166.378906 364.746094 C 165.5625 364.363281 164.597656 364.734375 164.222656 365.566406 C 163.847656 366.398438 164.203125 367.382812 165.019531 367.765625 C 168.84375 369.550781 172.089844 370.523438 174.800781 370.683594 " fill-opacity="1" fill-rule="nonzero"/></g><path fill="#2a2c2c" d="M 187.703125 344.679688 C 188.125 344.691406 188.550781 344.542969 188.875 344.230469 C 189.523438 343.609375 189.550781 342.582031 188.925781 341.933594 C 182.707031 335.429688 183.136719 333.566406 183.289062 333.257812 C 184.179688 331.429688 192.945312 332.292969 198.742188 332.867188 C 209.65625 333.945312 220.9375 335.058594 224.183594 329.03125 C 229.082031 319.941406 211.292969 306.832031 209.25 305.367188 C 208.519531 304.84375 207.507812 305.007812 206.980469 305.738281 C 206.457031 306.46875 206.625 307.480469 207.355469 308.007812 C 211.933594 311.289062 224.324219 321.917969 221.320312 327.488281 C 219.101562 331.617188 207.992188 330.515625 199.066406 329.632812 C 189.664062 328.707031 182.246094 327.972656 180.367188 331.835938 C 179.042969 334.546875 180.898438 338.238281 186.578125 344.175781 C 186.886719 344.496094 187.292969 344.664062 187.703125 344.679688 " fill-opacity="1" fill-rule="nonzero"/><g clip-path="url(#754991215e)"><path fill="#b0f1fc" d="M 299.691406 195.289062 C 301.445312 256.191406 252.675781 306.886719 190.765625 308.515625 C 128.851562 310.144531 77.238281 262.097656 75.480469 201.191406 C 73.914062 146.703125 160.425781 32.460938 178.664062 9.003906 C 180.390625 6.785156 183.75 6.699219 185.597656 8.824219 C 205.15625 31.28125 298.121094 140.800781 299.691406 195.289062 " fill-opacity="1" fill-rule="nonzero"/></g><path fill="#f0fcff" d="M 127.453125 126.125 C 126.683594 126.097656 125.90625 125.914062 125.167969 125.566406 C 122.210938 124.167969 120.945312 120.632812 122.335938 117.667969 C 129.328125 102.773438 147.539062 76.398438 148.308594 75.28125 C 150.171875 72.589844 153.855469 71.917969 156.539062 73.789062 C 159.21875 75.660156 159.882812 79.355469 158.019531 82.046875 C 157.839844 82.3125 139.605469 108.726562 133.035156 122.726562 C 131.992188 124.945312 129.753906 126.21875 127.453125 126.125 " fill-opacity="1" fill-rule="nonzero"/><path fill="#f0fcff" d="M 164.265625 67.296875 C 163.203125 67.257812 162.140625 66.929688 161.195312 66.285156 C 158.488281 64.453125 157.773438 60.765625 159.601562 58.050781 L 160.746094 56.347656 C 162.570312 53.628906 166.246094 52.914062 168.953125 54.746094 C 171.660156 56.582031 172.375 60.269531 170.546875 62.988281 L 169.402344 64.6875 C 168.210938 66.453125 166.242188 67.375 164.265625 67.296875 " fill-opacity="1" fill-rule="nonzero"/><path fill="#2a2c2c" d="M 160.671875 287.265625 C 155.488281 287.265625 150.703125 286.347656 146.640625 285.128906 C 134.941406 281.621094 126.863281 275.152344 126.523438 274.875 C 125.945312 274.40625 125.855469 273.558594 126.324219 272.976562 C 126.792969 272.398438 127.644531 272.304688 128.226562 272.777344 C 128.304688 272.84375 136.289062 279.226562 147.496094 282.566406 C 162.355469 286.992188 175.582031 284.253906 186.816406 274.421875 C 187.378906 273.929688 188.230469 273.988281 188.722656 274.550781 C 189.214844 275.113281 189.15625 275.964844 188.597656 276.453125 C 179.222656 284.65625 169.386719 287.265625 160.671875 287.265625 " fill-opacity="1" fill-rule="nonzero"/><path fill="#2a2c2c" d="M 218.121094 287.347656 C 207.699219 287.347656 198.050781 283.59375 189.664062 276.183594 C 189.128906 275.710938 189.082031 274.894531 189.550781 274.355469 C 190.027344 273.824219 190.84375 273.769531 191.378906 274.246094 C 203.46875 284.929688 217.726562 287.527344 233.746094 281.964844 C 245.796875 277.78125 254.332031 270.339844 254.417969 270.269531 C 254.953125 269.796875 255.773438 269.847656 256.246094 270.382812 C 256.71875 270.921875 256.664062 271.738281 256.132812 272.210938 C 255.765625 272.53125 247.121094 280.0625 234.59375 284.410156 C 228.945312 286.371094 223.433594 287.347656 218.121094 287.347656 " fill-opacity="1" fill-rule="nonzero"/><path fill="#2a2c2c" d="M 192.773438 267.484375 C 192.773438 272.355469 191.191406 276.304688 189.238281 276.304688 C 187.285156 276.304688 185.703125 272.355469 185.703125 267.484375 C 185.703125 262.613281 187.285156 258.667969 189.238281 258.667969 C 191.191406 258.667969 192.773438 262.613281 192.773438 267.484375 " fill-opacity="1" fill-rule="nonzero"/><path fill="#2a2c2c" d="M 187.710938 250.226562 C 180.316406 250.226562 173.839844 247.6875 170.070312 243.238281 C 169.5 242.566406 169.585938 241.566406 170.257812 240.996094 C 170.929688 240.429688 171.929688 240.515625 172.5 241.183594 C 176.003906 245.324219 182.476562 247.484375 189.8125 246.972656 C 196.828125 246.476562 202.941406 243.648438 205.386719 239.765625 C 205.851562 239.023438 206.832031 238.800781 207.582031 239.265625 C 208.324219 239.734375 208.546875 240.714844 208.078125 241.457031 C 205.066406 246.246094 198.152344 249.570312 190.035156 250.144531 C 189.25 250.195312 188.476562 250.226562 187.710938 250.226562 " fill-opacity="1" fill-rule="nonzero"/><path fill="#fbada8" d="M 112.609375 226.410156 C 112.644531 229.851562 118.472656 232.585938 125.632812 232.523438 C 132.792969 232.460938 138.574219 229.625 138.542969 226.183594 C 138.511719 222.742188 132.683594 220.003906 125.523438 220.070312 C 118.359375 220.128906 112.582031 222.96875 112.609375 226.410156 " fill-opacity="1" fill-rule="nonzero"/><path fill="#fbada8" d="M 233.875 224.773438 C 234.21875 228.199219 240.269531 230.390625 247.398438 229.675781 C 254.523438 228.964844 260.023438 225.613281 259.679688 222.195312 C 259.335938 218.773438 253.285156 216.570312 246.15625 217.285156 C 239.03125 217.996094 233.53125 221.351562 233.875 224.773438 " fill-opacity="1" fill-rule="nonzero"/><path fill="#2a2c2c" d="M 218.613281 216.273438 C 212.308594 216.273438 207.011719 213.660156 203.769531 208.734375 C 203.375 208.136719 203.542969 207.332031 204.144531 206.933594 C 204.738281 206.539062 205.550781 206.703125 205.941406 207.308594 C 211.535156 215.800781 222.089844 213.582031 225.195312 212.699219 C 231.625 210.871094 236.929688 206.71875 237.019531 203.441406 C 237.042969 202.722656 237.621094 202.152344 238.359375 202.179688 C 239.074219 202.199219 239.640625 202.796875 239.621094 203.515625 C 239.496094 207.988281 233.601562 213.011719 225.90625 215.199219 C 223.371094 215.917969 220.925781 216.273438 218.613281 216.273438 " fill-opacity="1" fill-rule="nonzero"/><path fill="#2a2c2c" d="M 153.425781 217.785156 C 152.109375 217.785156 150.804688 217.695312 149.535156 217.519531 C 141.601562 216.417969 135.914062 212.242188 135.058594 206.882812 C 134.945312 206.175781 135.425781 205.507812 136.136719 205.394531 C 136.84375 205.28125 137.511719 205.761719 137.625 206.476562 C 138.296875 210.675781 143.113281 214.003906 149.890625 214.945312 C 156.59375 215.871094 165.082031 214.125 167.886719 208.089844 C 168.191406 207.441406 168.960938 207.15625 169.617188 207.460938 C 170.265625 207.761719 170.546875 208.535156 170.246094 209.183594 C 167.410156 215.289062 160.292969 217.785156 153.425781 217.785156 " fill-opacity="1" fill-rule="nonzero"/></svg>