<svg xmlns="http://www.w3.org/2000/svg" xmlns:xlink="http://www.w3.org/1999/xlink" width="500" zoomAndPan="magnify" viewBox="0 0 375 374.999991" height="500" preserveAspectRatio="xMidYMid meet" version="1.0"><defs><clipPath id="ea74e8eead"><path d="M 72 9.199219 L 300 9.199219 L 300 313 L 72 313 Z M 72 9.199219 " clip-rule="nonzero"/></clipPath><clipPath id="d0487ee7bf"><path d="M 146 311 L 175 311 L 175 365.449219 L 146 365.449219 Z M 146 311 " clip-rule="nonzero"/></clipPath><clipPath id="4ba3286262"><path d="M 36.167969 260 L 49 260 L 49 265 L 36.167969 265 Z M 36.167969 260 " clip-rule="nonzero"/></clipPath><clipPath id="f6239d3aa2"><path d="M 325.558594 156.355469 L 339.167969 156.355469 L 339.167969 168.445312 L 325.558594 168.445312 Z M 325.558594 156.355469 " clip-rule="nonzero"/></clipPath><clipPath id="00d49bccf6"><path d="M 97.058594 151.808594 L 247 151.808594 L 247 154.808594 L 97.058594 154.808594 Z M 97.058594 151.808594 " clip-rule="nonzero"/></clipPath></defs><g clip-path="url(#ea74e8eead)"><path fill="#b4f0fa" d="M 298.953125 192.648438 C 304.046875 253.839844 257.449219 307.507812 194.878906 312.523438 C 132.308594 317.539062 77.460938 272 72.371094 210.808594 C 67.8125 156.066406 149.152344 36.390625 166.335938 11.792969 C 167.957031 9.46875 171.351562 9.195312 173.339844 11.234375 C 194.359375 32.765625 294.402344 137.90625 298.953125 192.648438 " fill-opacity="1" fill-rule="nonzero"/></g><path fill="#f0fcff" d="M 120.792969 132.445312 C 120.039062 132.445312 119.273438 132.300781 118.539062 132.003906 C 115.472656 130.757812 113.996094 127.269531 115.242188 124.210938 C 121.503906 108.839844 138.5 81.304688 139.222656 80.140625 C 140.960938 77.328125 144.648438 76.457031 147.46875 78.191406 C 150.28125 79.925781 151.15625 83.609375 149.417969 86.421875 C 149.25 86.699219 132.230469 114.269531 126.34375 128.714844 C 125.398438 131.035156 123.15625 132.445312 120.792969 132.445312 " fill-opacity="1" fill-rule="nonzero"/><path fill="#f0fcff" d="M 154.84375 71.238281 C 153.796875 71.238281 152.734375 70.964844 151.769531 70.386719 C 148.929688 68.691406 148.011719 65.015625 149.710938 62.183594 L 150.777344 60.410156 C 152.476562 57.574219 156.15625 56.65625 158.996094 58.351562 C 161.835938 60.050781 162.757812 63.722656 161.058594 66.554688 L 159.992188 68.332031 C 158.867188 70.203125 156.882812 71.238281 154.84375 71.238281 " fill-opacity="1" fill-rule="nonzero"/><g clip-path="url(#d0487ee7bf)"><path fill="#2e3030" d="M 160.121094 365.425781 C 156.523438 365.425781 152.3125 363.605469 147.371094 359.925781 C 146.695312 359.421875 146.554688 358.460938 147.0625 357.785156 C 147.566406 357.105469 148.53125 356.964844 149.210938 357.472656 C 155.136719 361.886719 159.777344 363.3125 163.003906 361.707031 C 171.480469 357.492188 171.605469 333.683594 171.71875 312.671875 C 171.722656 311.828125 172.433594 311.148438 173.261719 311.152344 C 174.109375 311.15625 174.792969 311.84375 174.789062 312.691406 C 174.664062 335.652344 174.539062 359.394531 164.375 364.445312 C 163.0625 365.101562 161.648438 365.425781 160.121094 365.425781 " fill-opacity="1" fill-rule="nonzero"/></g><path fill="#2e3030" d="M 48.148438 263.304688 C 47.429688 263.304688 46.789062 262.800781 46.640625 262.070312 C 46.476562 261.242188 47.015625 260.433594 47.847656 260.265625 C 66.730469 256.488281 70.492188 254.566406 86.3125 246.476562 L 87.71875 245.757812 C 88.472656 245.371094 89.398438 245.667969 89.785156 246.421875 C 90.171875 247.175781 89.875 248.101562 89.117188 248.484375 L 87.714844 249.203125 C 71.980469 257.25 67.753906 259.410156 48.453125 263.273438 C 48.347656 263.292969 48.246094 263.304688 48.148438 263.304688 " fill-opacity="1" fill-rule="nonzero"/><g clip-path="url(#4ba3286262)"><path fill="#2e3030" d="M 37.773438 264.074219 C 36.984375 264.074219 36.3125 263.464844 36.246094 262.664062 C 36.175781 261.820312 36.804688 261.082031 37.652344 261.011719 L 47.183594 260.234375 C 48.035156 260.160156 48.769531 260.792969 48.839844 261.636719 C 48.90625 262.480469 48.277344 263.21875 47.433594 263.289062 L 37.902344 264.066406 C 37.855469 264.070312 37.816406 264.074219 37.773438 264.074219 " fill-opacity="1" fill-rule="nonzero"/></g><path fill="#2e3030" d="M 41.730469 270.722656 C 41.390625 270.722656 41.050781 270.613281 40.769531 270.382812 C 40.105469 269.851562 40.003906 268.886719 40.53125 268.226562 L 45.679688 261.839844 L 40.414062 256.839844 C 39.800781 256.253906 39.777344 255.28125 40.363281 254.671875 C 40.945312 254.058594 41.921875 254.03125 42.535156 254.621094 L 49.847656 261.566406 L 42.929688 270.148438 C 42.621094 270.523438 42.175781 270.722656 41.730469 270.722656 " fill-opacity="1" fill-rule="nonzero"/><path fill="#2e3030" d="M 291.265625 191.035156 C 290.679688 191.035156 290.121094 190.699219 289.863281 190.132812 C 289.515625 189.363281 289.859375 188.453125 290.632812 188.105469 L 292.0625 187.460938 C 308.265625 180.152344 312.117188 178.410156 326.847656 166.027344 C 327.496094 165.476562 328.464844 165.5625 329.011719 166.207031 C 329.558594 166.855469 329.472656 167.824219 328.824219 168.371094 C 313.769531 181.03125 309.441406 182.984375 293.328125 190.25 L 291.898438 190.898438 C 291.691406 190.988281 291.476562 191.035156 291.265625 191.035156 " fill-opacity="1" fill-rule="nonzero"/><path fill="#2e3030" d="M 328.355469 168.066406 C 327.976562 168.066406 327.597656 167.929688 327.304688 167.652344 C 326.683594 167.070312 326.652344 166.101562 327.234375 165.484375 L 333.78125 158.527344 C 334.363281 157.910156 335.335938 157.878906 335.953125 158.460938 C 336.570312 159.042969 336.601562 160.011719 336.019531 160.628906 L 329.472656 167.582031 C 329.171875 167.902344 328.765625 168.066406 328.355469 168.066406 " fill-opacity="1" fill-rule="nonzero"/><g clip-path="url(#f6239d3aa2)"><path fill="#2e3030" d="M 326.617188 168.394531 L 325.726562 158.359375 C 325.65625 157.515625 326.277344 156.773438 327.121094 156.699219 C 327.976562 156.621094 328.714844 157.246094 328.789062 158.089844 L 329.429688 165.3125 L 337.644531 165.277344 C 337.648438 165.277344 337.648438 165.277344 337.648438 165.277344 C 338.496094 165.277344 339.183594 165.957031 339.1875 166.800781 C 339.191406 167.648438 338.507812 168.335938 337.65625 168.34375 L 326.617188 168.394531 " fill-opacity="1" fill-rule="nonzero"/></g><path fill="#2e3030" d="M 265.449219 332.742188 C 254.621094 332.742188 240.285156 315.855469 226.390625 299.492188 C 225.84375 298.847656 225.921875 297.882812 226.570312 297.335938 C 227.214844 296.789062 228.183594 296.867188 228.730469 297.511719 C 242.339844 313.539062 257.765625 331.710938 266.972656 329.503906 C 270.480469 328.664062 273.121094 324.597656 274.820312 317.414062 C 275.015625 316.589844 275.839844 316.078125 276.667969 316.277344 C 277.492188 316.472656 278.003906 317.296875 277.808594 318.117188 C 275.792969 326.636719 272.480469 331.335938 267.6875 332.480469 C 266.960938 332.65625 266.214844 332.742188 265.449219 332.742188 " fill-opacity="1" fill-rule="nonzero"/><path fill="#1c1b1b" d="M 213.519531 237.304688 C 211.449219 243.097656 209.21875 247.53125 206.960938 250.878906 C 205.640625 252.828125 204.320312 254.414062 203.015625 255.683594 C 199.460938 259.1875 196.015625 260.464844 193.164062 260.753906 C 188.117188 261.273438 183.324219 258.945312 179.371094 255.125 C 175.546875 251.507812 172.492188 246.53125 170.695312 241.472656 C 170.558594 241.128906 170.578125 240.734375 170.753906 240.40625 C 170.914062 240.097656 171.207031 239.875 171.542969 239.839844 L 212.414062 235.628906 C 212.789062 235.589844 213.148438 235.796875 213.375 236.136719 C 213.601562 236.472656 213.671875 236.925781 213.519531 237.304688 " fill-opacity="1" fill-rule="nonzero"/><path fill="#ff736b" d="M 201.464844 257.082031 C 198.464844 259.542969 195.597656 260.503906 193.164062 260.753906 C 188.117188 261.273438 183.324219 258.945312 179.371094 255.125 C 182.308594 251.390625 187.5 250.082031 193.449219 251.136719 C 198.105469 251.960938 201.464844 257.082031 201.464844 257.082031 " fill-opacity="1" fill-rule="nonzero"/><path fill="#fcfcfc" d="M 173.875 215.601562 C 174.375 224.175781 167.816406 231.539062 159.21875 232.039062 C 150.625 232.542969 143.246094 225.996094 142.742188 217.417969 C 142.238281 208.839844 148.796875 201.472656 157.394531 200.976562 C 165.996094 200.472656 173.371094 207.019531 173.875 215.601562 " fill-opacity="1" fill-rule="nonzero"/><path fill="#181919" d="M 170.589844 218.132812 C 170.96875 224.664062 165.972656 230.269531 159.429688 230.652344 C 152.882812 231.035156 147.265625 226.050781 146.878906 219.519531 C 146.5 212.984375 151.496094 207.378906 158.039062 206.996094 C 164.585938 206.613281 170.207031 211.597656 170.589844 218.132812 " fill-opacity="1" fill-rule="nonzero"/><path fill="#ffffff" d="M 154.882812 213.558594 C 155 215.589844 153.449219 217.328125 151.410156 217.449219 C 149.378906 217.570312 147.632812 216.019531 147.515625 213.992188 C 147.398438 211.957031 148.949219 210.21875 150.976562 210.097656 C 153.019531 209.980469 154.757812 211.53125 154.882812 213.558594 " fill-opacity="1" fill-rule="nonzero"/><path fill="#fcfcfc" d="M 237.761719 213.925781 C 238.261719 222.503906 231.703125 229.867188 223.105469 230.367188 C 214.507812 230.871094 207.132812 224.328125 206.628906 215.742188 C 206.125 207.164062 212.683594 199.804688 221.289062 199.300781 C 229.882812 198.796875 237.253906 205.347656 237.761719 213.925781 " fill-opacity="1" fill-rule="nonzero"/><path fill="#181919" d="M 234.476562 216.460938 C 234.863281 222.992188 229.859375 228.597656 223.3125 228.984375 C 216.769531 229.363281 211.148438 224.378906 210.765625 217.847656 C 210.382812 211.308594 215.375 205.707031 221.925781 205.328125 C 228.472656 204.945312 234.09375 209.925781 234.476562 216.460938 " fill-opacity="1" fill-rule="nonzero"/><path fill="#ffffff" d="M 218.769531 211.890625 C 218.886719 213.917969 217.335938 215.660156 215.296875 215.78125 C 213.265625 215.894531 211.523438 214.347656 211.402344 212.320312 C 211.285156 210.292969 212.835938 208.546875 214.871094 208.425781 C 216.898438 208.308594 218.648438 209.859375 218.769531 211.890625 " fill-opacity="1" fill-rule="nonzero"/><path fill="#b4f0fa" d="M 235.171875 231.097656 L 142.839844 233.800781 L 142.605469 225.710938 L 188.789062 223.0625 L 234.933594 223.003906 L 235.171875 231.097656 " fill-opacity="1" fill-rule="nonzero"/><path fill="#fbada8" d="M 148.476562 235.773438 C 148.140625 240.296875 141.019531 243.601562 132.570312 243.164062 C 124.125 242.730469 117.550781 238.714844 117.886719 234.195312 C 118.226562 229.675781 125.351562 226.367188 133.792969 226.800781 C 142.242188 227.242188 148.816406 231.253906 148.476562 235.773438 " fill-opacity="1" fill-rule="nonzero"/><path fill="#fbada8" d="M 262.136719 227.878906 C 262.757812 232.359375 257.53125 237.039062 250.46875 238.332031 C 243.402344 239.628906 237.175781 237.050781 236.554688 232.574219 C 235.933594 228.105469 241.15625 223.425781 248.226562 222.128906 C 255.285156 220.828125 261.515625 223.40625 262.136719 227.878906 " fill-opacity="1" fill-rule="nonzero"/><g clip-path="url(#00d49bccf6)"><path fill="#b4f0fa" d="M 97.511719 151.808594 L 97.511719 154.808594 L 246.585938 154.808594 L 246.585938 151.808594 L 97.511719 151.808594 " fill-opacity="1" fill-rule="nonzero"/></g></svg>