<svg xmlns="http://www.w3.org/2000/svg" xmlns:xlink="http://www.w3.org/1999/xlink" width="500" zoomAndPan="magnify" viewBox="0 0 375 374.999991" height="500" preserveAspectRatio="xMidYMid meet" version="1.0"><path fill="#2191d1" d="M 366.800781 191.953125 L 198.921875 25.855469 C 198.167969 25.113281 197.351562 24.449219 196.472656 23.863281 C 195.589844 23.277344 194.660156 22.785156 193.683594 22.382812 C 192.703125 21.980469 191.695312 21.675781 190.660156 21.472656 C 189.621094 21.265625 188.574219 21.164062 187.515625 21.164062 C 186.457031 21.164062 185.410156 21.265625 184.375 21.472656 C 183.335938 21.675781 182.328125 21.980469 181.351562 22.382812 C 180.371094 22.785156 179.441406 23.277344 178.5625 23.863281 C 177.679688 24.449219 176.863281 25.113281 176.113281 25.855469 L 111.902344 89.214844 L 111.902344 76.65625 C 111.902344 76.125 111.851562 75.597656 111.746094 75.078125 C 111.640625 74.554688 111.488281 74.046875 111.285156 73.554688 C 111.082031 73.066406 110.832031 72.597656 110.535156 72.15625 C 110.242188 71.714844 109.90625 71.304688 109.527344 70.929688 C 109.152344 70.550781 108.742188 70.214844 108.300781 69.921875 C 107.859375 69.625 107.390625 69.375 106.898438 69.171875 C 106.410156 68.96875 105.902344 68.8125 105.378906 68.710938 C 104.859375 68.605469 104.332031 68.554688 103.800781 68.554688 L 72.039062 68.554688 C 71.507812 68.554688 70.980469 68.605469 70.457031 68.710938 C 69.9375 68.8125 69.429688 68.96875 68.9375 69.171875 C 68.445312 69.375 67.980469 69.625 67.539062 69.921875 C 67.09375 70.214844 66.6875 70.550781 66.308594 70.929688 C 65.933594 71.304688 65.597656 71.714844 65.300781 72.15625 C 65.007812 72.597656 64.757812 73.066406 64.554688 73.554688 C 64.351562 74.046875 64.195312 74.554688 64.09375 75.078125 C 63.988281 75.597656 63.9375 76.125 63.9375 76.65625 L 63.9375 136.816406 L 8.191406 191.953125 C 7.488281 192.652344 6.898438 193.441406 6.425781 194.316406 C 5.957031 195.191406 5.621094 196.113281 5.425781 197.089844 C 5.226562 198.0625 5.175781 199.042969 5.269531 200.035156 C 5.363281 201.023438 5.597656 201.976562 5.976562 202.898438 C 6.355469 203.816406 6.855469 204.660156 7.484375 205.429688 C 8.113281 206.203125 8.839844 206.863281 9.664062 207.417969 C 10.488281 207.972656 11.375 208.398438 12.324219 208.6875 C 13.277344 208.980469 14.25 209.125 15.242188 209.128906 L 63.53125 209.128906 L 63.53125 307.289062 C 63.527344 308.019531 63.5625 308.753906 63.632812 309.480469 C 63.699219 310.210938 63.804688 310.933594 63.945312 311.65625 C 64.085938 312.375 64.261719 313.085938 64.472656 313.785156 C 64.683594 314.488281 64.929688 315.175781 65.207031 315.855469 C 65.484375 316.53125 65.796875 317.195312 66.140625 317.84375 C 66.484375 318.488281 66.859375 319.117188 67.265625 319.726562 C 67.671875 320.339844 68.105469 320.925781 68.570312 321.496094 C 69.03125 322.0625 69.523438 322.605469 70.039062 323.125 C 70.558594 323.644531 71.097656 324.136719 71.664062 324.601562 C 72.230469 325.066406 72.816406 325.503906 73.425781 325.914062 C 74.035156 326.320312 74.664062 326.695312 75.308594 327.042969 C 75.953125 327.390625 76.617188 327.703125 77.292969 327.984375 C 77.96875 328.265625 78.65625 328.511719 79.359375 328.726562 C 80.058594 328.9375 80.769531 329.117188 81.488281 329.261719 C 82.207031 329.402344 82.929688 329.511719 83.660156 329.582031 C 84.390625 329.65625 85.121094 329.691406 85.851562 329.691406 L 127.621094 329.691406 C 128.589844 330.6875 129.585938 331.65625 130.605469 332.605469 C 131.625 333.550781 132.667969 334.46875 133.730469 335.363281 C 134.796875 336.257812 135.882812 337.125 136.992188 337.964844 C 138.101562 338.804688 139.230469 339.617188 140.378906 340.402344 C 141.527344 341.183594 142.695312 341.941406 143.878906 342.664062 C 145.066406 343.390625 146.269531 344.085938 147.492188 344.75 C 148.714844 345.417969 149.949219 346.050781 151.203125 346.65625 C 152.457031 347.257812 153.722656 347.832031 155.003906 348.371094 C 156.285156 348.910156 157.582031 349.417969 158.886719 349.894531 C 160.195312 350.371094 161.511719 350.8125 162.839844 351.222656 C 164.167969 351.632812 165.507812 352.011719 166.855469 352.355469 C 168.203125 352.699219 169.558594 353.007812 170.921875 353.28125 C 172.285156 353.558594 173.652344 353.800781 175.027344 354.007812 C 176.40625 354.214844 177.785156 354.386719 179.167969 354.527344 C 180.550781 354.664062 181.9375 354.769531 183.328125 354.835938 C 184.714844 354.90625 186.105469 354.941406 187.496094 354.941406 C 188.886719 354.941406 190.277344 354.90625 191.664062 354.835938 C 193.054688 354.769531 194.441406 354.664062 195.824219 354.527344 C 197.207031 354.386719 198.589844 354.214844 199.964844 354.007812 C 201.339844 353.800781 202.707031 353.558594 204.070312 353.28125 C 205.433594 353.007812 206.789062 352.699219 208.136719 352.355469 C 209.484375 352.011719 210.824219 351.632812 212.152344 351.222656 C 213.480469 350.8125 214.796875 350.371094 216.105469 349.894531 C 217.410156 349.417969 218.707031 348.910156 219.988281 348.371094 C 221.269531 347.832031 222.535156 347.257812 223.789062 346.65625 C 225.042969 346.050781 226.277344 345.417969 227.5 344.75 C 228.722656 344.085938 229.925781 343.390625 231.113281 342.664062 C 232.296875 341.941406 233.464844 341.183594 234.613281 340.402344 C 235.761719 339.617188 236.890625 338.804688 238 337.964844 C 239.109375 337.125 240.195312 336.257812 241.261719 335.363281 C 242.324219 334.46875 243.367188 333.550781 244.386719 332.605469 C 245.40625 331.65625 246.402344 330.6875 247.371094 329.691406 L 289.140625 329.691406 C 289.871094 329.691406 290.597656 329.65625 291.328125 329.582031 C 292.054688 329.511719 292.777344 329.40625 293.492188 329.261719 C 294.210938 329.121094 294.917969 328.941406 295.617188 328.730469 C 296.320312 328.519531 297.007812 328.273438 297.679688 327.992188 C 298.355469 327.710938 299.015625 327.398438 299.660156 327.054688 C 300.304688 326.710938 300.933594 326.335938 301.539062 325.929688 C 302.148438 325.523438 302.734375 325.089844 303.300781 324.625 C 303.863281 324.160156 304.40625 323.671875 304.921875 323.152344 C 305.441406 322.636719 305.929688 322.09375 306.394531 321.53125 C 306.859375 320.964844 307.292969 320.378906 307.699219 319.769531 C 308.105469 319.164062 308.480469 318.535156 308.824219 317.890625 C 309.167969 317.246094 309.480469 316.585938 309.761719 315.910156 C 310.042969 315.234375 310.289062 314.546875 310.5 313.847656 C 310.710938 313.148438 310.890625 312.441406 311.03125 311.722656 C 311.175781 311.007812 311.28125 310.285156 311.351562 309.558594 C 311.425781 308.828125 311.460938 308.101562 311.460938 307.371094 L 311.460938 209.089844 L 359.75 209.089844 C 360.738281 209.082031 361.707031 208.933594 362.652344 208.640625 C 363.597656 208.347656 364.480469 207.921875 365.300781 207.371094 C 366.121094 206.816406 366.84375 206.15625 367.46875 205.386719 C 368.09375 204.621094 368.597656 203.78125 368.972656 202.863281 C 369.347656 201.949219 369.585938 201 369.679688 200.015625 C 369.777344 199.027344 369.726562 198.050781 369.535156 197.082031 C 369.339844 196.109375 369.011719 195.1875 368.546875 194.3125 C 368.078125 193.441406 367.496094 192.652344 366.800781 191.953125 Z M 187.496094 336.171875 C 146.011719 336.171875 112.347656 301.332031 112.347656 258.269531 C 112.367188 251.433594 113.25 244.707031 115 238.097656 C 116.75 231.488281 119.308594 225.207031 122.679688 219.257812 L 187.496094 108.824219 L 252.3125 219.257812 C 255.648438 225.222656 258.175781 231.515625 259.890625 238.132812 C 261.609375 244.75 262.457031 251.472656 262.441406 258.308594 C 262.644531 301.332031 228.980469 336.171875 187.496094 336.171875 Z M 187.496094 336.171875 " fill-opacity="1" fill-rule="nonzero"/><path fill="#2191d1" d="M 196.855469 216.257812 L 170.925781 173.761719 L 145 216.257812 C 144.5625 217.015625 144.15625 217.789062 143.785156 218.578125 C 143.414062 219.371094 143.078125 220.175781 142.777344 220.996094 C 142.476562 221.816406 142.214844 222.648438 141.984375 223.492188 C 141.757812 224.335938 141.566406 225.1875 141.414062 226.046875 C 141.261719 226.90625 141.144531 227.769531 141.066406 228.640625 C 140.988281 229.511719 140.949219 230.382812 140.949219 231.257812 C 140.945312 232.128906 140.984375 233.003906 141.058594 233.871094 C 141.132812 234.742188 141.246094 235.609375 141.394531 236.46875 C 141.546875 237.328125 141.734375 238.179688 141.957031 239.027344 C 142.183594 239.871094 142.445312 240.703125 142.742188 241.523438 C 143.039062 242.34375 143.375 243.152344 143.742188 243.945312 C 144.109375 244.734375 144.511719 245.511719 144.949219 246.269531 C 145.382812 247.023438 145.851562 247.761719 146.351562 248.476562 C 146.851562 249.195312 147.382812 249.886719 147.945312 250.554688 C 148.503906 251.226562 149.09375 251.871094 149.710938 252.488281 C 150.328125 253.105469 150.972656 253.695312 151.640625 254.257812 C 152.308594 254.820312 153 255.351562 153.714844 255.855469 C 154.429688 256.355469 155.167969 256.824219 155.921875 257.261719 C 156.679688 257.699219 157.453125 258.101562 158.246094 258.472656 C 159.035156 258.839844 159.84375 259.175781 160.664062 259.476562 C 161.484375 259.773438 162.316406 260.035156 163.160156 260.261719 C 164.003906 260.488281 164.855469 260.679688 165.714844 260.832031 C 166.574219 260.980469 167.441406 261.097656 168.3125 261.171875 C 169.179688 261.25 170.054688 261.285156 170.925781 261.285156 C 171.800781 261.285156 172.671875 261.25 173.542969 261.171875 C 174.414062 261.097656 175.277344 260.980469 176.136719 260.832031 C 177 260.679688 177.851562 260.488281 178.695312 260.261719 C 179.539062 260.035156 180.371094 259.773438 181.191406 259.476562 C 182.011719 259.175781 182.816406 258.839844 183.609375 258.472656 C 184.402344 258.101562 185.175781 257.699219 185.929688 257.261719 C 186.6875 256.824219 187.421875 256.355469 188.136719 255.855469 C 188.855469 255.351562 189.546875 254.820312 190.214844 254.257812 C 190.882812 253.695312 191.527344 253.105469 192.144531 252.488281 C 192.761719 251.871094 193.347656 251.226562 193.910156 250.554688 C 194.472656 249.886719 195 249.195312 195.503906 248.476562 C 196.003906 247.761719 196.46875 247.023438 196.90625 246.269531 C 197.34375 245.511719 197.746094 244.734375 198.113281 243.945312 C 198.480469 243.152344 198.8125 242.34375 199.113281 241.523438 C 199.410156 240.703125 199.671875 239.871094 199.894531 239.027344 C 200.121094 238.179688 200.308594 237.328125 200.457031 236.46875 C 200.609375 235.609375 200.722656 234.742188 200.796875 233.871094 C 200.871094 233.003906 200.90625 232.128906 200.90625 231.257812 C 200.902344 230.382812 200.863281 229.511719 200.785156 228.640625 C 200.707031 227.769531 200.59375 226.90625 200.441406 226.046875 C 200.285156 225.1875 200.097656 224.335938 199.867188 223.492188 C 199.640625 222.648438 199.375 221.816406 199.074219 220.996094 C 198.773438 220.175781 198.441406 219.371094 198.070312 218.578125 C 197.699219 217.789062 197.292969 217.015625 196.855469 216.257812 Z M 196.855469 216.257812 " fill-opacity="1" fill-rule="nonzero"/><path fill="#2191d1" d="M 238.824219 272.042969 L 223.390625 246.722656 L 207.75 272.042969 C 207.226562 272.945312 206.78125 273.886719 206.421875 274.867188 C 206.0625 275.847656 205.789062 276.847656 205.601562 277.878906 C 205.417969 278.90625 205.324219 279.941406 205.320312 280.984375 C 205.316406 282.027344 205.40625 283.066406 205.585938 284.09375 C 205.761719 285.121094 206.027344 286.128906 206.382812 287.109375 C 206.738281 288.09375 207.175781 289.035156 207.695312 289.941406 C 208.214844 290.847656 208.8125 291.699219 209.480469 292.5 C 210.152344 293.300781 210.886719 294.039062 211.683594 294.710938 C 212.484375 295.382812 213.335938 295.980469 214.238281 296.503906 C 215.140625 297.027344 216.082031 297.464844 217.066406 297.824219 C 218.046875 298.183594 219.050781 298.453125 220.078125 298.632812 C 221.105469 298.816406 222.144531 298.90625 223.1875 298.90625 C 224.230469 298.90625 225.265625 298.816406 226.296875 298.632812 C 227.324219 298.453125 228.328125 298.183594 229.308594 297.824219 C 230.289062 297.464844 231.230469 297.027344 232.136719 296.503906 C 233.039062 295.980469 233.890625 295.382812 234.6875 294.710938 C 235.488281 294.039062 236.222656 293.300781 236.890625 292.5 C 237.5625 291.699219 238.15625 290.847656 238.675781 289.941406 C 239.199219 289.035156 239.636719 288.09375 239.988281 287.109375 C 240.34375 286.128906 240.609375 285.121094 240.789062 284.09375 C 240.96875 283.066406 241.054688 282.027344 241.050781 280.984375 C 241.050781 279.941406 240.953125 278.90625 240.769531 277.878906 C 240.585938 276.847656 240.3125 275.847656 239.953125 274.867188 C 239.589844 273.886719 239.148438 272.945312 238.621094 272.042969 Z M 238.824219 272.042969 " fill-opacity="1" fill-rule="nonzero"/></svg>