<svg xmlns="http://www.w3.org/2000/svg" xmlns:xlink="http://www.w3.org/1999/xlink" width="500" zoomAndPan="magnify" viewBox="0 0 375 374.999991" height="500" preserveAspectRatio="xMidYMid meet" version="1.0"><defs><filter x="0%" y="0%" width="100%" height="100%" id="0fe25d7fbe"><feColorMatrix values="0 0 0 0 1 0 0 0 0 1 0 0 0 0 1 0 0 0 1 0" color-interpolation-filters="sRGB"/></filter><clipPath id="af587b3517"><path d="M 0 0.359375 L 260.398438 0.359375 L 260.398438 345.480469 L 0 345.480469 Z M 0 0.359375 " clip-rule="nonzero"/></clipPath><mask id="d752cdabcd"><g filter="url(#0fe25d7fbe)"><rect x="-82.5" width="540" fill="#000000" y="-97.499998" height="539.999987" fill-opacity="0.68"/></g></mask><clipPath id="7b04097834"><path d="M 0 4 L 260.398438 4 L 260.398438 343 L 0 343 Z M 0 4 " clip-rule="nonzero"/></clipPath><clipPath id="a1126eb4b6"><rect x="0" width="261" y="0" height="346"/></clipPath><clipPath id="02ccf0b7da"><path d="M 151 35.804688 L 199 35.804688 L 199 99 L 151 99 Z M 151 35.804688 " clip-rule="nonzero"/></clipPath><clipPath id="6ee79b08b8"><path d="M 171 97 L 176 97 L 176 110.34375 L 171 110.34375 Z M 171 97 " clip-rule="nonzero"/></clipPath><clipPath id="b256994461"><path d="M 142.816406 84 L 154 84 L 154 90 L 142.816406 90 Z M 142.816406 84 " clip-rule="nonzero"/></clipPath><clipPath id="a3ef4599fe"><path d="M 198 66.71875 L 207.773438 66.71875 L 207.773438 74.484375 L 198 74.484375 Z M 198 66.71875 " clip-rule="nonzero"/></clipPath><clipPath id="6b4ef11877"><rect x="0" width="261" y="0" height="346"/></clipPath></defs><g transform="matrix(1, 0, 0, 1, 0, 15)"><g clip-path="url(#6b4ef11877)"><g clip-path="url(#af587b3517)"><g mask="url(#d752cdabcd)"><g transform="matrix(1, 0, 0, 1, 0, 0)"><g clip-path="url(#a1126eb4b6)"><g clip-path="url(#7b04097834)"><path fill="#1e82ce" d="M 257.179688 177.007812 L 87.117188 8.753906 C 86.738281 8.378906 86.34375 8.023438 85.925781 7.683594 C 85.511719 7.347656 85.082031 7.03125 84.636719 6.734375 C 84.191406 6.441406 83.734375 6.167969 83.261719 5.917969 C 82.789062 5.667969 82.308594 5.4375 81.8125 5.234375 C 81.316406 5.03125 80.816406 4.855469 80.304688 4.699219 C 79.792969 4.546875 79.273438 4.417969 78.75 4.3125 C 78.226562 4.210938 77.699219 4.132812 77.164062 4.078125 C 76.632812 4.027344 76.101562 4 75.566406 4 C 75.03125 4 74.5 4.027344 73.96875 4.078125 C 73.433594 4.132812 72.90625 4.210938 72.382812 4.3125 C 71.859375 4.417969 71.339844 4.546875 70.828125 4.699219 C 70.316406 4.855469 69.816406 5.03125 69.320312 5.234375 C 68.828125 5.4375 68.34375 5.667969 67.871094 5.917969 C 67.398438 6.167969 66.941406 6.441406 66.496094 6.734375 C 66.050781 7.03125 65.621094 7.347656 65.207031 7.683594 C 64.792969 8.023438 64.394531 8.378906 64.015625 8.753906 L -1.03125 72.9375 L -1.03125 60.214844 C -1.03125 59.675781 -1.082031 59.144531 -1.1875 58.613281 C -1.292969 58.085938 -1.449219 57.574219 -1.65625 57.074219 C -1.859375 56.578125 -2.113281 56.105469 -2.414062 55.65625 C -2.710938 55.207031 -3.054688 54.792969 -3.433594 54.410156 C -3.816406 54.03125 -4.230469 53.691406 -4.679688 53.390625 C -5.125 53.09375 -5.597656 52.839844 -6.097656 52.632812 C -6.59375 52.425781 -7.109375 52.269531 -7.636719 52.164062 C -8.164062 52.0625 -8.699219 52.007812 -9.238281 52.007812 L -41.410156 52.007812 C -41.949219 52.007812 -42.484375 52.0625 -43.011719 52.164062 C -43.539062 52.269531 -44.054688 52.425781 -44.550781 52.632812 C -45.050781 52.839844 -45.523438 53.09375 -45.972656 53.390625 C -46.417969 53.691406 -46.832031 54.03125 -47.214844 54.410156 C -47.597656 54.792969 -47.9375 55.207031 -48.234375 55.65625 C -48.535156 56.105469 -48.789062 56.578125 -48.992188 57.074219 C -49.199219 57.574219 -49.355469 58.085938 -49.460938 58.613281 C -49.566406 59.144531 -49.617188 59.675781 -49.617188 60.214844 L -49.617188 121.15625 L -106.085938 177.007812 C -106.800781 177.71875 -107.398438 178.515625 -107.875 179.402344 C -108.351562 180.289062 -108.691406 181.222656 -108.890625 182.210938 C -109.089844 183.199219 -109.144531 184.191406 -109.046875 185.195312 C -108.953125 186.195312 -108.714844 187.164062 -108.332031 188.09375 C -107.949219 189.027344 -107.441406 189.882812 -106.804688 190.664062 C -106.167969 191.441406 -105.433594 192.113281 -104.597656 192.675781 C -103.761719 193.238281 -102.863281 193.667969 -101.898438 193.960938 C -100.9375 194.257812 -99.953125 194.40625 -98.945312 194.410156 L -50.027344 194.410156 L -50.027344 293.84375 C -50.03125 294.585938 -49.996094 295.324219 -49.929688 296.066406 C -49.859375 296.804688 -49.75 297.539062 -49.609375 298.265625 C -49.464844 298.996094 -49.289062 299.714844 -49.074219 300.425781 C -48.863281 301.136719 -48.613281 301.835938 -48.332031 302.519531 C -48.050781 303.207031 -47.734375 303.878906 -47.386719 304.535156 C -47.039062 305.191406 -46.65625 305.828125 -46.246094 306.445312 C -45.835938 307.0625 -45.394531 307.660156 -44.925781 308.234375 C -44.457031 308.808594 -43.960938 309.359375 -43.433594 309.886719 C -42.910156 310.410156 -42.363281 310.910156 -41.789062 311.382812 C -41.21875 311.851562 -40.621094 312.296875 -40.003906 312.707031 C -39.390625 313.121094 -38.753906 313.503906 -38.097656 313.855469 C -37.445312 314.207031 -36.773438 314.523438 -36.089844 314.808594 C -35.402344 315.09375 -34.707031 315.34375 -33.996094 315.558594 C -33.285156 315.773438 -32.566406 315.953125 -31.839844 316.101562 C -31.109375 316.246094 -30.378906 316.355469 -29.640625 316.425781 C -28.898438 316.5 -28.160156 316.535156 -27.417969 316.535156 L 14.890625 316.535156 C 15.875 317.546875 16.882812 318.527344 17.917969 319.488281 C 18.949219 320.445312 20.003906 321.378906 21.082031 322.285156 C 22.160156 323.191406 23.261719 324.066406 24.386719 324.917969 C 25.507812 325.769531 26.652344 326.59375 27.816406 327.386719 C 28.980469 328.179688 30.164062 328.945312 31.363281 329.679688 C 32.566406 330.414062 33.785156 331.117188 35.023438 331.792969 C 36.257812 332.464844 37.511719 333.109375 38.78125 333.722656 C 40.050781 334.332031 41.335938 334.910156 42.632812 335.460938 C 43.929688 336.007812 45.242188 336.519531 46.566406 337.003906 C 47.890625 337.484375 49.222656 337.933594 50.570312 338.347656 C 51.917969 338.765625 53.273438 339.144531 54.636719 339.496094 C 56.003906 339.84375 57.375 340.15625 58.757812 340.433594 C 60.136719 340.714844 61.523438 340.957031 62.917969 341.167969 C 64.308594 341.378906 65.707031 341.554688 67.109375 341.695312 C 68.511719 341.835938 69.914062 341.941406 71.324219 342.011719 C 72.730469 342.082031 74.136719 342.117188 75.546875 342.117188 C 76.953125 342.117188 78.363281 342.082031 79.769531 342.011719 C 81.175781 341.941406 82.582031 341.835938 83.984375 341.695312 C 85.382812 341.554688 86.78125 341.378906 88.175781 341.167969 C 89.566406 340.957031 90.957031 340.714844 92.335938 340.433594 C 93.714844 340.15625 95.089844 339.84375 96.453125 339.496094 C 97.820312 339.144531 99.175781 338.765625 100.523438 338.347656 C 101.867188 337.933594 103.203125 337.484375 104.527344 337.003906 C 105.851562 336.519531 107.160156 336.007812 108.460938 335.460938 C 109.757812 334.910156 111.042969 334.332031 112.308594 333.722656 C 113.578125 333.109375 114.832031 332.464844 116.070312 331.792969 C 117.308594 331.117188 118.527344 330.414062 119.726562 329.679688 C 120.929688 328.945312 122.113281 328.179688 123.277344 327.386719 C 124.441406 326.59375 125.582031 325.769531 126.707031 324.917969 C 127.828125 324.066406 128.929688 323.191406 130.007812 322.285156 C 131.089844 321.378906 132.144531 320.445312 133.175781 319.488281 C 134.207031 318.527344 135.214844 317.546875 136.199219 316.535156 L 178.507812 316.535156 C 179.25 316.535156 179.988281 316.5 180.726562 316.429688 C 181.460938 316.355469 182.195312 316.246094 182.921875 316.101562 C 183.648438 315.957031 184.363281 315.777344 185.074219 315.5625 C 185.78125 315.347656 186.476562 315.097656 187.164062 314.816406 C 187.847656 314.53125 188.515625 314.214844 189.167969 313.867188 C 189.820312 313.515625 190.457031 313.136719 191.070312 312.726562 C 191.6875 312.3125 192.28125 311.875 192.855469 311.402344 C 193.425781 310.933594 193.976562 310.4375 194.5 309.914062 C 195.023438 309.390625 195.519531 308.84375 195.988281 308.269531 C 196.457031 307.695312 196.898438 307.101562 197.308594 306.488281 C 197.722656 305.871094 198.101562 305.238281 198.453125 304.582031 C 198.800781 303.929688 199.117188 303.261719 199.398438 302.578125 C 199.683594 301.894531 199.933594 301.199219 200.148438 300.488281 C 200.363281 299.78125 200.542969 299.0625 200.6875 298.335938 C 200.832031 297.609375 200.941406 296.878906 201.011719 296.140625 C 201.085938 295.402344 201.121094 294.664062 201.121094 293.925781 L 201.121094 194.367188 L 250.039062 194.367188 C 251.039062 194.359375 252.019531 194.207031 252.976562 193.914062 C 253.9375 193.617188 254.832031 193.1875 255.660156 192.625 C 256.492188 192.066406 257.222656 191.394531 257.859375 190.617188 C 258.492188 189.839844 259 188.988281 259.378906 188.0625 C 259.761719 187.136719 260 186.171875 260.097656 185.175781 C 260.195312 184.175781 260.144531 183.1875 259.949219 182.203125 C 259.753906 181.21875 259.417969 180.285156 258.949219 179.402344 C 258.476562 178.515625 257.886719 177.71875 257.179688 177.007812 Z M 75.546875 323.101562 C 33.523438 323.101562 -0.578125 287.808594 -0.578125 244.1875 C -0.558594 237.261719 0.335938 230.449219 2.109375 223.753906 C 3.882812 217.058594 6.472656 210.695312 9.886719 204.667969 L 75.546875 92.800781 L 141.207031 204.667969 C 144.585938 210.710938 147.144531 217.085938 148.882812 223.789062 C 150.621094 230.492188 151.480469 237.304688 151.464844 244.226562 C 151.671875 287.808594 117.570312 323.101562 75.546875 323.101562 Z M 75.546875 323.101562 " fill-opacity="1" fill-rule="nonzero"/></g><path fill="#1e82ce" d="M 85.027344 201.632812 L 58.761719 158.582031 L 32.496094 201.632812 C 32.054688 202.398438 31.644531 203.179688 31.269531 203.980469 C 30.890625 204.78125 30.550781 205.597656 30.246094 206.429688 C 29.941406 207.261719 29.675781 208.101562 29.445312 208.957031 C 29.214844 209.8125 29.019531 210.675781 28.867188 211.546875 C 28.710938 212.417969 28.59375 213.292969 28.515625 214.175781 C 28.4375 215.054688 28.394531 215.9375 28.394531 216.824219 C 28.390625 217.707031 28.429688 218.589844 28.503906 219.472656 C 28.582031 220.355469 28.695312 221.230469 28.847656 222.101562 C 29 222.976562 29.1875 223.839844 29.417969 224.695312 C 29.644531 225.546875 29.910156 226.390625 30.210938 227.222656 C 30.511719 228.054688 30.851562 228.875 31.222656 229.675781 C 31.597656 230.476562 32.003906 231.261719 32.445312 232.03125 C 32.886719 232.796875 33.359375 233.542969 33.867188 234.269531 C 34.375 234.992188 34.910156 235.695312 35.480469 236.375 C 36.046875 237.050781 36.644531 237.703125 37.269531 238.332031 C 37.894531 238.957031 38.546875 239.554688 39.222656 240.125 C 39.902344 240.695312 40.601562 241.230469 41.328125 241.738281 C 42.050781 242.25 42.796875 242.722656 43.5625 243.167969 C 44.328125 243.609375 45.113281 244.019531 45.914062 244.390625 C 46.714844 244.765625 47.53125 245.105469 48.363281 245.410156 C 49.195312 245.710938 50.039062 245.976562 50.894531 246.207031 C 51.75 246.4375 52.609375 246.628906 53.484375 246.78125 C 54.355469 246.933594 55.230469 247.050781 56.113281 247.128906 C 56.992188 247.207031 57.875 247.242188 58.761719 247.242188 C 59.648438 247.242188 60.53125 247.207031 61.410156 247.128906 C 62.292969 247.050781 63.167969 246.933594 64.039062 246.78125 C 64.914062 246.628906 65.773438 246.4375 66.628906 246.207031 C 67.484375 245.976562 68.328125 245.710938 69.160156 245.410156 C 69.992188 245.105469 70.808594 244.765625 71.609375 244.390625 C 72.410156 244.019531 73.195312 243.609375 73.960938 243.167969 C 74.726562 242.722656 75.472656 242.25 76.195312 241.738281 C 76.921875 241.230469 77.621094 240.695312 78.300781 240.125 C 78.976562 239.554688 79.628906 238.957031 80.253906 238.332031 C 80.878906 237.703125 81.476562 237.050781 82.042969 236.375 C 82.613281 235.695312 83.148438 234.992188 83.65625 234.269531 C 84.164062 233.542969 84.636719 232.796875 85.078125 232.03125 C 85.519531 231.261719 85.925781 230.476562 86.300781 229.675781 C 86.671875 228.875 87.011719 228.054688 87.3125 227.222656 C 87.613281 226.390625 87.878906 225.546875 88.105469 224.695312 C 88.332031 223.839844 88.523438 222.976562 88.675781 222.101562 C 88.828125 221.230469 88.941406 220.355469 89.019531 219.472656 C 89.09375 218.589844 89.132812 217.707031 89.128906 216.824219 C 89.128906 215.9375 89.085938 215.054688 89.007812 214.175781 C 88.929688 213.292969 88.8125 212.417969 88.65625 211.546875 C 88.503906 210.675781 88.308594 209.8125 88.078125 208.957031 C 87.847656 208.101562 87.582031 207.261719 87.277344 206.429688 C 86.972656 205.597656 86.632812 204.78125 86.253906 203.980469 C 85.878906 203.179688 85.46875 202.398438 85.027344 201.632812 Z M 85.027344 201.632812 " fill-opacity="1" fill-rule="nonzero"/><path fill="#1e82ce" d="M 127.539062 258.140625 L 111.90625 232.492188 L 96.066406 258.140625 C 95.53125 259.054688 95.082031 260.007812 94.71875 261 C 94.351562 261.992188 94.074219 263.007812 93.886719 264.050781 C 93.703125 265.089844 93.605469 266.140625 93.601562 267.199219 C 93.597656 268.253906 93.6875 269.304688 93.867188 270.347656 C 94.050781 271.390625 94.320312 272.40625 94.679688 273.402344 C 95.039062 274.398438 95.480469 275.351562 96.007812 276.269531 C 96.535156 277.1875 97.136719 278.050781 97.816406 278.863281 C 98.496094 279.675781 99.238281 280.421875 100.046875 281.101562 C 100.859375 281.78125 101.71875 282.386719 102.636719 282.917969 C 103.550781 283.445312 104.503906 283.894531 105.5 284.253906 C 106.492188 284.617188 107.511719 284.890625 108.550781 285.074219 C 109.59375 285.257812 110.644531 285.351562 111.699219 285.351562 C 112.757812 285.351562 113.808594 285.257812 114.847656 285.074219 C 115.890625 284.890625 116.90625 284.617188 117.902344 284.253906 C 118.894531 283.894531 119.851562 283.445312 120.765625 282.917969 C 121.679688 282.386719 122.542969 281.78125 123.351562 281.101562 C 124.160156 280.421875 124.90625 279.675781 125.582031 278.863281 C 126.261719 278.050781 126.863281 277.1875 127.390625 276.269531 C 127.917969 275.351562 128.363281 274.398438 128.722656 273.402344 C 129.082031 272.40625 129.351562 271.390625 129.53125 270.347656 C 129.710938 269.304688 129.800781 268.253906 129.796875 267.199219 C 129.792969 266.140625 129.699219 265.089844 129.511719 264.050781 C 129.324219 263.007812 129.046875 261.992188 128.683594 261 C 128.316406 260.007812 127.867188 259.054688 127.335938 258.140625 Z M 127.539062 258.140625 " fill-opacity="1" fill-rule="nonzero"/></g></g></g></g><g clip-path="url(#02ccf0b7da)"><path fill="#96d3f6" d="M 198.019531 73.25 C 199.289062 85.878906 189.917969 97.140625 177.085938 98.40625 C 164.25 99.671875 152.820312 90.460938 151.550781 77.835938 C 150.414062 66.539062 166.683594 41.511719 170.121094 36.367188 C 170.445312 35.878906 171.140625 35.808594 171.558594 36.222656 C 175.953125 40.597656 196.882812 61.957031 198.019531 73.25 " fill-opacity="1" fill-rule="nonzero"/></g><path fill="#f0fcff" d="M 161.226562 61.464844 C 161.066406 61.46875 160.902344 61.441406 160.742188 61.378906 C 160.109375 61.136719 159.792969 60.417969 160.039062 59.78125 C 161.269531 56.585938 164.65625 50.832031 164.800781 50.585938 C 165.148438 50 165.902344 49.808594 166.488281 50.15625 C 167.074219 50.503906 167.265625 51.261719 166.917969 51.847656 C 166.886719 51.90625 163.492188 57.667969 162.335938 60.671875 C 162.152344 61.148438 161.707031 61.449219 161.226562 61.464844 " fill-opacity="1" fill-rule="nonzero"/><path fill="#f0fcff" d="M 167.996094 48.691406 C 167.773438 48.699219 167.550781 48.644531 167.34375 48.527344 C 166.753906 48.1875 166.550781 47.429688 166.890625 46.839844 L 167.101562 46.46875 C 167.441406 45.875 168.195312 45.671875 168.785156 46.011719 C 169.375 46.355469 169.578125 47.109375 169.238281 47.699219 L 169.023438 48.070312 C 168.804688 48.457031 168.410156 48.675781 167.996094 48.691406 " fill-opacity="1" fill-rule="nonzero"/><g clip-path="url(#6ee79b08b8)"><path fill="#2a2c2c" d="M 172.769531 110.628906 C 172.738281 110.628906 172.707031 110.625 172.675781 110.617188 C 172.636719 110.605469 171.660156 110.316406 171.457031 109.382812 C 171.234375 108.378906 172.035156 107.089844 173.835938 105.554688 C 174.738281 104.785156 175.164062 103.925781 175.101562 103.007812 C 174.929688 100.5625 171.476562 98.339844 171.441406 98.316406 C 171.28125 98.214844 171.234375 98.003906 171.335938 97.847656 C 171.4375 97.6875 171.648438 97.640625 171.804688 97.742188 C 171.957031 97.839844 175.582031 100.171875 175.777344 102.957031 C 175.859375 104.105469 175.351562 105.152344 174.277344 106.070312 C 172.1875 107.851562 172.027344 108.820312 172.117188 109.238281 C 172.234375 109.769531 172.855469 109.960938 172.863281 109.960938 C 173.042969 110.011719 173.148438 110.199219 173.097656 110.382812 C 173.054688 110.53125 172.917969 110.628906 172.769531 110.628906 " fill-opacity="1" fill-rule="nonzero"/></g><path fill="#2a2c2c" d="M 189.566406 101.488281 C 189.414062 101.488281 189.277344 101.457031 189.148438 101.394531 C 188.539062 101.105469 188.414062 100.253906 188.242188 99.074219 C 188.15625 98.464844 188.054688 97.773438 187.875 97.027344 C 187.667969 96.167969 187.332031 95.625 186.855469 95.359375 C 185.863281 94.8125 184.175781 95.316406 181.511719 96.214844 C 181.332031 96.273438 181.140625 96.179688 181.082031 96 C 181.023438 95.824219 181.117188 95.628906 181.296875 95.570312 C 184.132812 94.613281 185.945312 94.082031 187.179688 94.765625 C 187.839844 95.128906 188.28125 95.816406 188.535156 96.867188 C 188.722656 97.644531 188.824219 98.351562 188.914062 98.976562 C 189.039062 99.835938 189.15625 100.648438 189.4375 100.78125 C 189.542969 100.832031 189.820312 100.847656 190.53125 100.421875 C 190.691406 100.324219 190.898438 100.375 190.996094 100.535156 C 191.09375 100.695312 191.042969 100.90625 190.878906 101.003906 C 190.339844 101.328125 189.917969 101.488281 189.566406 101.488281 " fill-opacity="1" fill-rule="nonzero"/><g clip-path="url(#b256994461)"><path fill="#2a2c2c" d="M 153.5625 84.789062 C 153.515625 84.707031 153.433594 84.648438 153.335938 84.636719 C 153.273438 84.628906 153.207031 84.640625 153.152344 84.671875 L 152.855469 84.832031 C 149.648438 86.589844 149.289062 86.789062 145.378906 87.6875 L 144.09375 86.53125 C 144.050781 86.492188 143.992188 86.464844 143.933594 86.457031 C 143.835938 86.441406 143.734375 86.480469 143.667969 86.554688 C 143.554688 86.675781 143.566406 86.867188 143.691406 86.980469 L 144.570312 87.769531 L 143.113281 87.929688 C 142.945312 87.949219 142.828125 88.097656 142.84375 88.265625 C 142.859375 88.402344 142.964844 88.511719 143.101562 88.53125 C 143.128906 88.53125 143.152344 88.535156 143.179688 88.53125 L 144.597656 88.375 L 143.785156 89.445312 C 143.738281 89.507812 143.71875 89.585938 143.726562 89.667969 C 143.738281 89.746094 143.78125 89.816406 143.84375 89.867188 C 143.886719 89.898438 143.933594 89.917969 143.984375 89.925781 C 144.09375 89.941406 144.199219 89.894531 144.265625 89.808594 L 145.414062 88.300781 C 145.414062 88.300781 145.414062 88.300781 145.417969 88.300781 C 149.5 87.363281 149.84375 87.171875 153.144531 85.363281 L 153.441406 85.199219 C 153.511719 85.160156 153.5625 85.097656 153.585938 85.019531 C 153.609375 84.941406 153.601562 84.859375 153.5625 84.789062 " fill-opacity="1" fill-rule="nonzero"/></g><g clip-path="url(#a3ef4599fe)"><path fill="#2a2c2c" d="M 207.785156 68.832031 C 207.777344 68.710938 207.703125 68.609375 207.59375 68.566406 C 207.550781 68.550781 207.507812 68.546875 207.464844 68.550781 L 206.125 68.636719 L 207.042969 67.535156 C 207.09375 67.476562 207.117188 67.398438 207.109375 67.316406 C 207.101562 67.238281 207.066406 67.164062 207.003906 67.113281 C 206.976562 67.089844 206.949219 67.074219 206.914062 67.0625 C 206.796875 67.015625 206.660156 67.050781 206.578125 67.152344 L 205.640625 68.277344 L 205.464844 67.109375 C 205.449219 67 205.375 66.90625 205.273438 66.871094 C 205.226562 66.851562 205.171875 66.847656 205.121094 66.855469 C 204.957031 66.878906 204.84375 67.03125 204.867188 67.195312 L 205.125 68.90625 C 202.269531 71.613281 201.765625 71.878906 198.644531 73.519531 L 198.160156 73.773438 C 198.089844 73.808594 198.035156 73.871094 198.011719 73.949219 C 197.988281 74.027344 197.996094 74.109375 198.035156 74.179688 C 198.066406 74.246094 198.125 74.296875 198.195312 74.320312 C 198.273438 74.351562 198.367188 74.347656 198.441406 74.304688 L 198.925781 74.050781 C 202.066406 72.402344 202.632812 72.105469 205.613281 69.273438 L 207.503906 69.152344 C 207.585938 69.144531 207.660156 69.109375 207.710938 69.050781 C 207.765625 68.988281 207.792969 68.910156 207.785156 68.832031 " fill-opacity="1" fill-rule="nonzero"/></g><path fill="#fbada8" d="M 165.742188 80.367188 C 165.785156 81.132812 164.675781 81.820312 163.261719 81.90625 C 161.847656 81.988281 160.664062 81.433594 160.621094 80.667969 C 160.574219 79.898438 161.683594 79.210938 163.097656 79.125 C 164.511719 79.042969 165.695312 79.597656 165.742188 80.367188 " fill-opacity="1" fill-rule="nonzero"/><path fill="#fbada8" d="M 190.863281 78.019531 C 190.949219 78.753906 189.976562 79.476562 188.683594 79.632812 C 187.394531 79.789062 186.273438 79.324219 186.1875 78.589844 C 186.097656 77.855469 187.070312 77.132812 188.363281 76.976562 C 189.652344 76.820312 190.773438 77.289062 190.863281 78.019531 " fill-opacity="1" fill-rule="nonzero"/><path fill="#2a2c2c" d="M 181.753906 82.371094 C 181.160156 83.683594 180.554688 84.679688 179.964844 85.417969 C 179.621094 85.847656 179.28125 86.191406 178.953125 86.464844 C 178.058594 87.214844 177.230469 87.445312 176.5625 87.460938 C 175.378906 87.484375 174.304688 86.851562 173.457031 85.882812 C 172.632812 84.964844 172.015625 83.746094 171.695312 82.53125 C 171.667969 82.445312 171.679688 82.355469 171.730469 82.28125 C 171.773438 82.214844 171.84375 82.167969 171.921875 82.164062 L 181.527344 81.960938 C 181.613281 81.957031 181.695312 82.011719 181.742188 82.097656 C 181.789062 82.179688 181.796875 82.285156 181.753906 82.371094 " fill-opacity="1" fill-rule="nonzero"/><path fill="#ff736b" d="M 178.566406 86.761719 C 177.820312 87.277344 177.136719 87.449219 176.5625 87.460938 C 175.378906 87.484375 174.304688 86.851562 173.457031 85.882812 C 174.210938 85.066406 175.445312 84.859375 176.8125 85.21875 C 177.882812 85.5 178.566406 86.761719 178.566406 86.761719 " fill-opacity="1" fill-rule="nonzero"/><path fill="#2a2c2c" d="M 179.285156 77.359375 C 179.273438 77.359375 179.257812 77.355469 179.242188 77.355469 C 179.066406 77.328125 178.949219 77.167969 178.972656 76.996094 C 179.269531 74.945312 180.910156 74.324219 182.34375 74.429688 C 183.855469 74.539062 185.488281 75.496094 185.488281 76.851562 C 185.488281 77.027344 185.34375 77.171875 185.171875 77.171875 C 184.992188 77.171875 184.851562 77.027344 184.851562 76.851562 C 184.851562 75.980469 183.683594 75.164062 182.300781 75.0625 C 181.738281 75.023438 179.894531 75.050781 179.601562 77.085938 C 179.578125 77.242188 179.441406 77.359375 179.285156 77.359375 " fill-opacity="1" fill-rule="nonzero"/><path fill="#2a2c2c" d="M 166.570312 78.578125 C 166.394531 78.578125 166.253906 78.433594 166.253906 78.257812 C 166.253906 76.8125 167.199219 75.710938 168.71875 75.386719 C 170.238281 75.0625 172.191406 75.660156 172.980469 77.429688 C 173.054688 77.589844 172.980469 77.777344 172.820312 77.847656 C 172.660156 77.921875 172.472656 77.847656 172.402344 77.6875 C 171.75 76.226562 170.121094 75.738281 168.847656 76.007812 C 167.902344 76.210938 166.890625 76.90625 166.890625 78.257812 C 166.890625 78.433594 166.746094 78.578125 166.570312 78.578125 " fill-opacity="1" fill-rule="nonzero"/></g></g></svg>