<svg xmlns="http://www.w3.org/2000/svg" xmlns:xlink="http://www.w3.org/1999/xlink" width="500" zoomAndPan="magnify" viewBox="0 0 375 374.999991" height="500" preserveAspectRatio="xMidYMid meet" version="1.0"><defs><clipPath id="657d2aca08"><path d="M 152 310 L 176 310 L 176 370.589844 L 152 370.589844 Z M 152 310 " clip-rule="nonzero"/></clipPath><clipPath id="57e112ef7c"><path d="M 25.027344 239 L 69 239 L 69 292 L 25.027344 292 Z M 25.027344 239 " clip-rule="nonzero"/></clipPath><clipPath id="2a6431bf6b"><path d="M 329 166 L 337.484375 166 L 337.484375 178 L 329 178 Z M 329 166 " clip-rule="nonzero"/></clipPath><clipPath id="03e1e77730"><path d="M 112.5 186 L 262.5 186 L 262.5 189 L 112.5 189 Z M 112.5 186 " clip-rule="nonzero"/></clipPath></defs><path fill="#2a2c2c" d="M 227.972656 363.007812 C 227.667969 362.238281 226.851562 361.769531 226.035156 361.890625 C 225.898438 361.910156 225.761719 361.949219 225.628906 362 C 223.351562 362.910156 221.265625 363.507812 219.429688 363.78125 C 216.34375 364.238281 213.875 363.824219 211.882812 362.507812 C 204.746094 357.789062 204.375 341.800781 203.984375 324.875 C 203.890625 320.839844 203.792969 316.675781 203.601562 312.589844 C 203.578125 312.109375 203.371094 311.664062 203.015625 311.339844 C 202.65625 311.015625 202.195312 310.851562 201.714844 310.875 C 201.652344 310.875 201.589844 310.882812 201.527344 310.890625 C 200.625 311.023438 199.949219 311.84375 199.996094 312.761719 C 200.183594 316.816406 200.28125 320.960938 200.371094 324.96875 C 200.789062 342.863281 201.179688 359.761719 209.890625 365.519531 C 212.65625 367.34375 215.945312 367.945312 219.945312 367.355469 C 222.070312 367.039062 224.429688 366.363281 226.964844 365.355469 C 227.414062 365.175781 227.765625 364.832031 227.957031 364.390625 C 228.148438 363.945312 228.152344 363.457031 227.972656 363.007812 " fill-opacity="1" fill-rule="nonzero"/><g clip-path="url(#657d2aca08)"><path fill="#2a2c2c" d="M 175.238281 367.160156 C 175.015625 366.292969 174.210938 365.726562 173.320312 365.8125 C 173.226562 365.820312 173.132812 365.835938 173.039062 365.859375 C 171.699219 366.203125 170.429688 366.433594 169.269531 366.546875 C 165.675781 366.890625 162.929688 366.144531 160.871094 364.261719 C 152.472656 356.566406 156.730469 330.929688 159.835938 312.214844 C 159.914062 311.738281 159.804688 311.261719 159.523438 310.867188 C 159.242188 310.472656 158.828125 310.21875 158.351562 310.136719 C 158.195312 310.113281 158.035156 310.105469 157.882812 310.121094 C 157.070312 310.199219 156.40625 310.816406 156.273438 311.625 C 152.070312 336.945312 149.328125 358.582031 158.429688 366.921875 C 161.238281 369.496094 165.019531 370.574219 169.664062 370.128906 L 169.671875 370.125 C 171.019531 369.996094 172.453125 369.738281 173.941406 369.355469 C 174.90625 369.109375 175.488281 368.125 175.238281 367.160156 " fill-opacity="1" fill-rule="nonzero"/></g><path fill="#b4f0fa" d="M 295.292969 197.394531 C 299.632812 261.128906 250.410156 316.25 185.347656 320.503906 C 120.285156 324.753906 64.023438 276.535156 59.683594 212.800781 C 55.796875 155.773438 142.121094 32.523438 160.34375 7.199219 C 162.066406 4.804688 165.597656 4.574219 167.632812 6.722656 C 189.128906 29.449219 291.40625 140.367188 295.292969 197.394531 " fill-opacity="1" fill-rule="nonzero"/><path fill="#f0fcff" d="M 111.273438 132.015625 C 110.460938 132.015625 109.640625 131.855469 108.847656 131.519531 C 105.679688 130.179688 104.203125 126.527344 105.542969 123.363281 C 112.289062 107.46875 130.363281 79.082031 131.128906 77.882812 C 132.980469 74.984375 136.824219 74.136719 139.726562 75.984375 C 142.621094 77.832031 143.472656 81.679688 141.621094 84.574219 C 141.441406 84.859375 123.339844 113.285156 117.003906 128.222656 C 116 130.589844 113.695312 132.015625 111.273438 132.015625 " fill-opacity="1" fill-rule="nonzero"/><path fill="#f0fcff" d="M 147.585938 68.867188 C 146.464844 68.867188 145.332031 68.566406 144.316406 67.933594 C 141.390625 66.121094 140.492188 62.289062 142.300781 59.367188 L 143.4375 57.535156 C 145.246094 54.617188 149.082031 53.714844 152.007812 55.527344 C 154.925781 57.332031 155.828125 61.167969 154.015625 64.089844 L 152.882812 65.917969 C 151.703125 67.820312 149.667969 68.867188 147.585938 68.867188 " fill-opacity="1" fill-rule="nonzero"/><g clip-path="url(#57e112ef7c)"><path fill="#2a2c2c" d="M 68.027344 240.015625 C 68.398438 240.394531 68.574219 240.929688 68.496094 241.457031 C 68.4375 241.816406 68.273438 242.140625 68.015625 242.398438 L 66.679688 243.71875 C 52.167969 258.074219 50.539062 259.691406 39.511719 279.15625 L 43.65625 287.867188 C 43.800781 288.171875 43.855469 288.507812 43.800781 288.839844 C 43.714844 289.394531 43.367188 289.867188 42.859375 290.109375 C 42.023438 290.507812 41.015625 290.148438 40.617188 289.3125 L 37.785156 283.355469 L 34.613281 290.894531 C 34.25 291.75 33.261719 292.152344 32.40625 291.792969 C 31.695312 291.492188 31.277344 290.75 31.394531 289.988281 C 31.417969 289.851562 31.453125 289.714844 31.507812 289.585938 L 34.601562 282.238281 L 27.589844 284.882812 C 27.171875 285.039062 26.714844 285.027344 26.304688 284.839844 C 25.894531 284.65625 25.582031 284.320312 25.421875 283.902344 C 25.320312 283.632812 25.292969 283.339844 25.335938 283.054688 C 25.425781 282.453125 25.835938 281.945312 26.40625 281.730469 L 36.296875 278.003906 C 36.300781 277.996094 36.304688 277.992188 36.304688 277.984375 C 47.816406 257.644531 49.375 256.101562 64.3125 241.328125 L 65.648438 240.007812 C 65.964844 239.691406 66.386719 239.515625 66.839844 239.519531 C 67.285156 239.519531 67.710938 239.699219 68.027344 240.015625 " fill-opacity="1" fill-rule="nonzero"/></g><path fill="#2a2c2c" d="M 332.992188 171.503906 C 332.730469 171.480469 332.46875 171.515625 332.222656 171.613281 C 331.613281 171.855469 331.199219 172.40625 331.144531 173.058594 C 329.820312 188.277344 316.128906 200.222656 303.144531 205.304688 C 300.109375 206.496094 297.179688 207.273438 294.453125 207.617188 C 294.3125 207.640625 294.175781 207.671875 294.042969 207.722656 C 293.3125 208.007812 292.875 208.75 292.972656 209.527344 C 293.09375 210.464844 293.949219 211.125 294.882812 211.007812 C 297.925781 210.625 301.136719 209.773438 304.429688 208.484375 C 309.972656 206.3125 315.367188 203.046875 320.019531 199.042969 C 328.59375 191.667969 333.75 182.546875 334.546875 173.355469 C 334.628906 172.414062 333.933594 171.585938 332.992188 171.503906 " fill-opacity="1" fill-rule="nonzero"/><g clip-path="url(#2a6431bf6b)"><path fill="#2a2c2c" d="M 334.539062 166.964844 C 333.554688 166.375 332.496094 166.253906 331.5625 166.621094 C 330.464844 167.050781 329.621094 168.105469 329.25 169.527344 C 328.515625 172.308594 329.742188 175.660156 331.984375 176.996094 C 332.964844 177.589844 334.023438 177.710938 334.960938 177.34375 C 336.054688 176.914062 336.894531 175.855469 337.273438 174.433594 C 338.003906 171.652344 336.777344 168.300781 334.539062 166.964844 " fill-opacity="1" fill-rule="nonzero"/></g><path fill="#2a2c2c" d="M 334.023438 157.511719 C 333.722656 157.167969 333.304688 156.964844 332.847656 156.9375 C 332.730469 156.933594 332.617188 156.933594 332.507812 156.953125 C 331.703125 157.0625 331.089844 157.730469 331.035156 158.539062 C 330.71875 163.855469 329.472656 170.78125 329.328125 171.554688 C 329.246094 172.003906 329.339844 172.457031 329.597656 172.832031 C 329.859375 173.207031 330.246094 173.460938 330.695312 173.542969 C 330.878906 173.578125 331.0625 173.585938 331.242188 173.558594 C 331.972656 173.457031 332.550781 172.902344 332.6875 172.179688 C 332.746094 171.871094 334.097656 164.554688 334.453125 158.746094 C 334.476562 158.289062 334.324219 157.851562 334.023438 157.511719 " fill-opacity="1" fill-rule="nonzero"/><path fill="#fcfcfc" d="M 165.984375 214.429688 C 165.984375 223.359375 158.738281 230.601562 149.804688 230.601562 C 140.867188 230.601562 133.625 223.359375 133.625 214.429688 C 133.625 205.496094 140.867188 198.253906 149.804688 198.253906 C 158.738281 198.253906 165.984375 205.496094 165.984375 214.429688 " fill-opacity="1" fill-rule="nonzero"/><path fill="#181919" d="M 164.992188 214.386719 C 164.992188 221.1875 159.480469 226.699219 152.675781 226.699219 C 145.875 226.699219 140.363281 221.1875 140.363281 214.386719 C 140.363281 207.585938 145.875 202.078125 152.675781 202.078125 C 159.480469 202.078125 164.992188 207.585938 164.992188 214.386719 " fill-opacity="1" fill-rule="nonzero"/><path fill="#ffffff" d="M 147.140625 211.289062 C 147.140625 213.398438 145.429688 215.113281 143.3125 215.113281 C 141.199219 215.113281 139.488281 213.398438 139.488281 211.289062 C 139.488281 209.171875 141.199219 207.457031 143.3125 207.457031 C 145.429688 207.457031 147.140625 209.171875 147.140625 211.289062 " fill-opacity="1" fill-rule="nonzero"/><path fill="#fcfcfc" d="M 232.828125 214.429688 C 232.828125 223.359375 225.585938 230.601562 216.652344 230.601562 C 207.714844 230.601562 200.46875 223.359375 200.46875 214.429688 C 200.46875 205.496094 207.714844 198.253906 216.652344 198.253906 C 225.585938 198.253906 232.828125 205.496094 232.828125 214.429688 " fill-opacity="1" fill-rule="nonzero"/><path fill="#181919" d="M 231.839844 214.386719 C 231.839844 221.1875 226.328125 226.699219 219.523438 226.699219 C 212.722656 226.699219 207.210938 221.1875 207.210938 214.386719 C 207.210938 207.585938 212.722656 202.078125 219.523438 202.078125 C 226.328125 202.078125 231.839844 207.585938 231.839844 214.386719 " fill-opacity="1" fill-rule="nonzero"/><path fill="#ffffff" d="M 213.992188 211.289062 C 213.992188 213.398438 212.273438 215.113281 210.160156 215.113281 C 208.050781 215.113281 206.335938 213.398438 206.335938 211.289062 C 206.335938 209.171875 208.050781 207.457031 210.160156 207.457031 C 212.273438 207.457031 213.992188 209.171875 213.992188 211.289062 " fill-opacity="1" fill-rule="nonzero"/><path fill="#fbada8" d="M 134.664062 234.253906 C 134.664062 238.511719 128.878906 241.964844 121.738281 241.964844 C 114.597656 241.964844 108.8125 238.511719 108.8125 234.253906 C 108.8125 229.992188 114.597656 226.539062 121.738281 226.539062 C 128.878906 226.539062 134.664062 229.992188 134.664062 234.253906 " fill-opacity="1" fill-rule="nonzero"/><path fill="#fbada8" d="M 258.1875 231.890625 C 258.472656 236.132812 253.191406 240.027344 246.382812 240.582031 C 239.582031 241.132812 233.835938 238.136719 233.550781 233.894531 C 233.265625 229.644531 238.550781 225.746094 245.351562 225.195312 C 252.152344 224.640625 257.902344 227.636719 258.1875 231.890625 " fill-opacity="1" fill-rule="nonzero"/><path fill="#2a2c2c" d="M 193.445312 251.335938 C 192.574219 257.015625 188.242188 261.066406 183.765625 260.382812 C 179.292969 259.695312 176.375 254.53125 177.246094 248.851562 C 178.117188 243.171875 182.449219 239.125 186.921875 239.8125 C 191.398438 240.496094 194.316406 245.65625 193.445312 251.335938 " fill-opacity="1" fill-rule="nonzero"/><g clip-path="url(#03e1e77730)"><path fill="#b4f0fa" d="M 112.953125 186 L 112.953125 189 L 262.027344 189 L 262.027344 186 L 112.953125 186 " fill-opacity="1" fill-rule="nonzero"/></g></svg>